<?xml version="1.0" encoding="UTF-8"?>
<svg version="1.1" viewBox="0 0 900 896" width="1280" height="1280" xmlns="http://www.w3.org/2000/svg">
<path transform="translate(310)" d="m0 0h44l18 5 36 8 17 2h37l27-4 30-7 11-3 2-1h43l15 9 14 12 12 12 11 15 12 21 14 32 10 27 19 56 13 44 15 52 6 17 13 3 41 11 29 10 26 11 19 10 16 11 10 9 8 9 5 11 1 10-2 9-7 12-11 11-14 9-18 10-28 12-21 8-2 1 1 16v14l-3 19-5 17-8 18-7 13-11 16-11 10-15 10-7 4h-2l-2 6-17 41-12 26-13 26-12 22-10 17-14 22-10 14-8 11-11 13-7 9-3 4h-2l-2 4-13 12-14 11-14 10-13 8-19 10-21 8-22 5-17 3h-24l-19-3-27-7-24-10-19-10-17-12-10-8-10-9-26-26-11-14-10-13-9-13-12-19-12-22-20-39-18-39-14-33-4-6-18-12-14-12-10-12-11-20-7-19-5-21-2-18v-23l-9-3-28-11-24-11-15-10-12-11-7-8-5-10-3-10 5-11 4-7 9-10 10-9 15-10 18-10 21-9 36-12 30-8 20-5 4-8 11-44 10-35 9-31 11-35 14-39 12-27 10-19 12-20 8-9 7-8 7-7 11-8zm261 542-21 3-15 4-12 5-11 7-8 7-10 14-21 28-7 11-6 14-1 6 3 9 9 8 5 2 18 2 9 3 1 1v6l-5 4-3 1h-67l-19 2-11 4-7 5-4 7v11l4 5 12 5 22 4 26 2 26 5 9 4 2 7-3 6-7 7-16 9-28 15-21 12-17 12-2 5 5 5 13 5 9 2 21 2h8l3-1 15-1 13-4 18-8 18-11 13-11 8-7 13-13 7-9 10-12 7-10 13-18 9-15 12-21 10-18 13-28 11-25 11-27 6-19v-5l-8-4-28-7-18-2z"/>
</svg>
